<?xml version="1.0" standalone="no"?>
<!DOCTYPE svg PUBLIC "-//W3C//DTD SVG 20010904//EN"
 "http://www.w3.org/TR/2001/REC-SVG-20010904/DTD/svg10.dtd">
<svg version="1.0" xmlns="http://www.w3.org/2000/svg"
 width="1281.000000pt" height="602.000000pt" viewBox="0 0 1281.000000 602.000000"
 preserveAspectRatio="xMidYMid meet">

<g transform="translate(0.000000,602.000000) scale(0.100000,-0.100000)"
fill="#000000" stroke="none">
<path d="M3505 5173 c-232 -21 -543 -94 -745 -176 -19 -8 -51 -20 -70 -28 -79
-32 -242 -115 -343 -176 -259 -156 -477 -349 -689 -611 -93 -115 -263 -405
-315 -537 -7 -16 -25 -64 -41 -105 -44 -113 -91 -286 -117 -432 -32 -177 -35
-557 -5 -740 44 -276 191 -679 325 -893 136 -217 197 -297 330 -431 127 -128
192 -183 290 -246 160 -102 258 -139 590 -225 11 -2 -23 23 -75 58 -181 119
-286 204 -436 353 -379 379 -590 788 -691 1341 -22 125 -26 567 -5 680 31 169
66 318 99 415 71 209 203 473 308 615 24 33 65 89 92 125 72 98 334 355 452
444 391 294 848 475 1334 528 l112 12 -80 18 c-75 16 -209 21 -320 11z"/>
<path d="M4016 2675 c-3 -8 -1 -15 4 -15 6 0 10 7 10 15 0 8 -2 15 -4 15 -2 0
-6 -7 -10 -15z"/>
<path d="M4326 2666 c-5 -22 -9 -24 -34 -15 -19 6 -38 6 -56 0 -19 -8 -32 -7
-46 1 -10 7 -22 9 -26 5 -4 -4 -9 -163 -12 -354 l-4 -348 30 -35 c26 -30 35
-34 77 -34 41 0 51 4 77 33 l30 33 -5 342 c-4 308 -8 380 -20 393 -3 2 -7 -7
-11 -21z"/>
<path d="M5170 2682 c0 -7 6 -12 13 -12 9 0 8 -3 -2 -9 -10 -7 -12 -34 -9
-122 5 -132 21 -174 94 -238 52 -45 104 -61 204 -61 128 0 149 -24 150 -170 0
-86 4 -111 19 -136 38 -62 133 -67 175 -10 18 23 22 45 24 138 5 161 18 174
178 180 75 3 98 8 135 30 99 58 130 119 137 270 4 82 2 109 -7 104 -7 -5 -11
1 -11 16 0 17 -3 19 -9 9 -7 -11 -9 -11 -14 0 -4 10 -6 10 -6 -2 -1 -13 -13
-18 -47 -21 -25 -2 -48 0 -50 4 -3 5 -15 8 -28 8 -22 0 -23 -5 -29 -91 -4 -51
-12 -98 -18 -105 -9 -11 -76 -14 -340 -14 -389 0 -359 -12 -359 137 0 85 -9
116 -23 79 -9 -23 -129 -16 -156 8 -12 11 -21 14 -21 8z"/>
<path d="M8263 2675 c0 -8 4 -12 8 -9 11 6 21 -14 14 -27 -5 -7 -13 -5 -25 6
-17 15 -19 13 -36 -37 -17 -47 -19 -87 -19 -360 l0 -308 26 -25 c45 -46 142
-36 170 16 9 18 12 101 10 322 -2 258 0 302 14 323 l15 24 321 0 c202 0 327
-4 340 -10 26 -15 27 -125 1 -156 -34 -41 -53 -44 -271 -44 l-211 0 -32 -29
c-28 -25 -33 -36 -33 -76 0 -40 5 -51 33 -76 l32 -29 206 0 c226 0 251 -5 279
-60 9 -18 15 -56 15 -99 0 -63 3 -74 28 -102 24 -27 36 -32 76 -33 42 -1 51 3
78 33 l30 34 -3 316 c-4 306 -5 317 -27 354 -12 21 -16 35 -10 31 10 -5 10 -3
0 7 -8 9 -15 10 -20 4 -9 -13 -27 -13 -39 -1 -5 5 -2 6 6 1 10 -5 12 -4 7 4
-5 8 -15 6 -35 -8 -18 -13 -39 -18 -64 -16 -23 2 -37 -1 -37 -8 0 -7 -6 -4
-13 5 -15 19 -74 22 -95 5 -10 -8 -16 -7 -21 1 -9 15 -466 14 -495 0 -13 -7
-16 -7 -12 1 11 18 -6 13 -20 -6 -7 -10 -14 -13 -14 -7 0 5 -14 9 -31 8 -22
-2 -29 2 -25 12 4 10 -3 14 -24 14 -17 0 -30 -5 -30 -12 0 -6 -7 -3 -15 8 -10
13 -14 15 -15 5 0 -11 -4 -11 -18 2 -15 14 -19 15 -19 2z m97 -30 c0 -8 -2
-15 -4 -15 -2 0 -6 7 -10 15 -3 8 -1 15 4 15 6 0 10 -7 10 -15z m75 -25 c3 -5
-3 -10 -15 -10 -12 0 -18 5 -15 10 3 6 10 10 15 10 5 0 12 -4 15 -10z"/>
<path d="M9156 2682 c-3 -6 -1 -14 5 -17 14 -9 20 -2 10 14 -6 8 -11 9 -15 3z"/>
<path d="M9430 2680 c0 -5 9 -19 19 -29 19 -19 19 -20 1 -18 -10 1 -17 4 -15
7 1 3 -3 11 -11 18 -21 19 -17 -2 5 -29 l19 -24 451 -3 c390 -2 455 -1 481 13
31 16 32 45 1 45 -14 0 -14 -2 -1 -10 8 -5 10 -10 5 -10 -6 0 -17 6 -24 13
-11 10 -14 10 -18 0 -3 -7 -9 -13 -14 -13 -6 0 -7 4 -4 10 4 7 -134 9 -405 9
-340 -2 -412 -4 -418 -16 -7 -11 -15 -7 -40 17 -18 16 -32 26 -32 20z"/>
<path d="M3079 2675 c-1 -5 -1 -13 0 -17 0 -3 -12 -11 -28 -16 -83 -29 -79
-212 6 -311 20 -24 59 -54 87 -67 50 -23 56 -24 377 -24 239 0 328 -3 337 -12
16 -16 16 -100 0 -116 -9 -9 -105 -12 -370 -12 -385 0 -408 -3 -442 -51 -26
-38 -21 -93 13 -131 l29 -33 394 0 c351 0 398 2 439 18 91 35 152 128 157 244
7 125 -44 224 -142 276 -39 21 -54 22 -376 25 -218 2 -339 7 -347 14 -8 6 -13
32 -13 64 0 42 4 55 19 64 13 6 153 10 389 10 l369 0 24 27 c13 14 19 23 12
20 -6 -4 -13 -4 -16 0 -2 5 -2 2 0 -6 3 -12 1 -12 -13 0 -22 18 -644 28 -644
10 0 -6 -9 -11 -21 -11 -11 0 -17 5 -14 10 9 14 -18 13 -33 -2 -8 -8 -15 -8
-24 -1 -13 11 -73 11 -84 1 -8 -9 -66 10 -76 24 -4 7 -8 9 -9 3z"/>
<path d="M3260 2665 c0 -8 2 -15 4 -15 2 0 6 7 10 15 3 8 1 15 -4 15 -6 0 -10
-7 -10 -15z"/>
<path d="M4760 2668 c0 -6 -3 -9 -6 -5 -8 8 -46 -32 -39 -43 3 -5 0 -12 -6
-16 -8 -4 -9 -3 -5 4 4 7 3 12 -3 12 -10 0 -193 -184 -216 -218 -14 -18 -18
-41 -16 -81 1 -31 370 -407 420 -428 65 -28 128 11 138 86 l6 41 -142 144
c-183 185 -181 173 -34 345 28 33 53 58 56 55 2 -3 7 4 10 16 3 11 1 20 -5 20
-5 0 -6 5 -2 11 4 8 9 7 15 -2 6 -11 11 -11 21 -1 9 9 8 15 -8 26 -18 14 -18
15 6 9 14 -3 22 -3 18 1 -9 11 -88 15 -82 4 8 -13 -40 -10 -54 4 -9 9 -16 8
-30 -5 -20 -19 -45 -5 -35 19 3 8 2 14 -1 14 -3 0 -6 -5 -6 -12z"/>
<path d="M5220 2670 c0 -5 5 -10 10 -10 6 0 10 5 10 10 0 6 -4 10 -10 10 -5 0
-10 -4 -10 -10z"/>
<path d="M6920 2510 c0 -96 -3 -258 -6 -360 -6 -183 -6 -185 18 -220 44 -65
138 -63 179 4 15 25 19 51 19 129 0 96 1 99 29 128 24 23 38 29 73 29 24 0 50
-6 59 -13 8 -7 46 -56 83 -110 73 -105 87 -117 139 -117 47 0 74 24 146 130
34 49 70 94 81 100 37 20 88 12 122 -19 33 -29 33 -30 36 -133 2 -56 8 -114
15 -127 27 -54 123 -63 169 -14 l23 25 0 346 c0 191 -4 355 -7 364 -6 15 -11
16 -33 6 -19 -8 -31 -8 -51 0 -14 7 -23 8 -19 2 4 -6 -10 -10 -34 -10 -32 0
-41 4 -42 18 0 10 -3 12 -6 5 -2 -7 -13 -13 -24 -13 -10 0 -19 -3 -19 -7 0 -5
-11 -13 -24 -19 -21 -10 -23 -9 -20 10 3 12 1 15 -2 8 -5 -10 -9 -10 -22 0
-10 7 -14 9 -10 4 4 -5 -6 -22 -22 -39 -16 -17 -64 -80 -107 -139 -82 -112
-104 -131 -152 -131 -46 0 -72 24 -157 142 -45 65 -83 110 -91 107 -6 -3 -10
1 -7 7 2 7 -8 28 -22 47 -15 19 -24 28 -21 18 8 -22 -2 -29 -25 -17 -22 12
-179 19 -173 8 3 -3 -9 -6 -26 -5 -16 1 -34 8 -39 16 -9 13 -10 13 -10 0 0
-13 -1 -13 -10 0 -6 10 -10 -43 -10 -160z"/>
<path d="M10406 2665 c4 -8 8 -15 10 -15 2 0 4 7 4 15 0 8 -4 15 -10 15 -5 0
-7 -7 -4 -15z"/>
<path d="M10520 2660 c11 -7 12 -12 4 -17 -9 -6 -13 -107 -15 -348 -4 -387 -5
-383 72 -407 37 -10 46 -10 77 8 52 27 62 54 62 166 0 54 5 109 12 123 23 52
43 55 347 55 l279 0 31 -30 c36 -37 44 -71 37 -165 -6 -87 10 -130 56 -149 51
-22 98 -13 131 25 l29 32 -6 341 c-3 187 -7 348 -8 358 -3 18 -50 17 -73 -2
-8 -7 -15 -7 -19 -1 -3 5 0 12 6 14 7 3 0 6 -15 6 -21 1 -30 -5 -34 -19 -6
-23 -23 -27 -23 -5 0 8 -4 15 -8 15 -20 0 -32 -28 -32 -73 0 -60 -23 -110 -56
-126 -17 -7 -117 -11 -307 -11 -245 0 -286 2 -306 16 -30 21 -51 72 -51 123 0
66 -4 69 -70 64 -33 -3 -67 -2 -77 2 -10 5 -27 10 -38 12 -16 2 -17 1 -5 -7z
m27 -22 c-3 -8 -6 -5 -6 6 -1 11 2 17 5 13 3 -3 4 -12 1 -19z"/>
<path d="M9881 2441 c-13 -3 -34 -19 -45 -34 -19 -26 -21 -44 -24 -229 -3
-206 1 -240 37 -272 39 -35 137 -21 161 23 6 12 10 108 10 238 0 209 -1 220
-21 242 -34 36 -69 46 -118 32z"/>
</g>
</svg>
