<svg xmlns="http://www.w3.org/2000/svg" xmlns:xlink="http://www.w3.org/1999/xlink" viewBox="0 0 841.13 179.29"><defs><style>.cls-1{fill:none;}.cls-2{isolation:isolate;}.cls-259{clip-path:url(#clip-path);}.cls-260{fill:url(#linear-gradient);}.cls-261{fill:url(#linear-gradient-2);}.cls-262{fill:url(#linear-gradient-3);}.cls-263{fill:url(#linear-gradient-4);}.cls-264{fill:url(#linear-gradient-5);}.cls-265{fill:url(#linear-gradient-6);}.cls-266{fill:url(#linear-gradient-7);}.cls-267{fill:url(#linear-gradient-8);}.cls-268{mix-blend-mode:screen;fill:url(#radial-gradient);}</style><clipPath id="clip-path" transform="translate(-2.3 1.4)"><path class="cls-1" d="M841.71,93.93l-29.16-53c-7.06-11.81-18.46-22.28-33.8-29.82A112.49,112.49,0,0,0,729.26,0C526.84,12.57,323,14.76,116.93,0A112.49,112.49,0,0,0,67.44,11.12c-15.34,7.54-26.74,18-33.8,29.82l-29.16,53c-10.08,23.62,0,83.46,0,83.46H841.41S850.57,113.81,841.71,93.93Z"/></clipPath><linearGradient id="linear-gradient" x1="478.58" y1="158.22" x2="478.58" y2="1.86" gradientUnits="userSpaceOnUse"><stop offset="0" stop-color="#ffc48b"/><stop offset="0.19" stop-color="#ffc58d"/><stop offset="0.26" stop-color="#ffc994"/><stop offset="0.3" stop-color="#ffcf9f"/><stop offset="0.34" stop-color="#fed8b0"/><stop offset="0.38" stop-color="#fee4c6"/><stop offset="0.41" stop-color="#fdf2e1"/><stop offset="0.41" stop-color="#fdf5e6"/><stop offset="0.42" stop-color="#fdf4e5"/><stop offset="0.53" stop-color="#fbe6ce"/><stop offset="0.66" stop-color="#faddbe"/><stop offset="0.8" stop-color="#f9d7b5"/><stop offset="1" stop-color="#f9d5b2"/></linearGradient><linearGradient id="linear-gradient-2" x1="582.16" y1="159.16" x2="582.16" y2="0.86" gradientUnits="userSpaceOnUse"><stop offset="0" stop-color="#951c00"/><stop offset="0.41" stop-color="#e5443b"/><stop offset="0.55" stop-color="#e8503a"/><stop offset="0.79" stop-color="#ec5d38"/><stop offset="1" stop-color="#ed6238"/></linearGradient><linearGradient id="linear-gradient-3" x1="677.22" y1="156.35" x2="677.22" y2="2.44" xlink:href="#linear-gradient"/><linearGradient id="linear-gradient-4" x1="770.13" y1="157.76" x2="770.13" y2="1.57" xlink:href="#linear-gradient-2"/><linearGradient id="linear-gradient-5" x1="367.61" y1="159.16" x2="367.61" y2="2.98" xlink:href="#linear-gradient-2"/><linearGradient id="linear-gradient-6" x1="264.03" y1="159.16" x2="264.03" y2="2.99" xlink:href="#linear-gradient"/><linearGradient id="linear-gradient-7" x1="168.97" y1="156.35" x2="168.97" y2="-2.16" xlink:href="#linear-gradient-2"/><linearGradient id="linear-gradient-8" x1="75.83" y1="158.36" x2="75.83" y2="3.11" xlink:href="#linear-gradient"/><radialGradient id="radial-gradient" cx="1534.01" cy="96.22" r="356.75" gradientTransform="translate(-1580.78) scale(1.31 1)" gradientUnits="userSpaceOnUse"><stop offset="0" stop-color="#f7b5ae"/><stop offset="0.11" stop-color="#e5a8a1"/><stop offset="0.32" stop-color="#b68680"/><stop offset="0.61" stop-color="#6b4e4b"/><stop offset="0.98" stop-color="#040303"/><stop offset="1"/></radialGradient></defs><g class="cls-2"><g id="Layer_2" data-name="Layer 2"><g id="Template"><g class="cls-259"><path class="cls-260" d="M423.09-1.4V144.43c27.11,20.76,83.87,20.76,111,0V93.93L519.27-1.4Z" transform="translate(-2.3 1.4)"/><path class="cls-261" d="M519.27-1.4l14.8,95.81v50c27,20.64,84,20.64,111,0V93.93L610.52-1.4Z" transform="translate(-2.3 1.4)"/><path class="cls-262" d="M610.52-1.4,645,94.41v50c23.93,18.32,75,18.32,98.89,0V93.93L696.83-1.4Z" transform="translate(-2.3 1.4)"/><path class="cls-263" d="M696.83-1.4l46.85,95.81v50c24.26,18.57,73.78,18.57,98,0,2.45-16.33,2.14-33.23,0-50.5L788.07-1.4Z" transform="translate(-2.3 1.4)"/><path class="cls-264" d="M423.09-1.4V144.43c-27.1,20.76-83.86,20.76-111,0V93.93L326.92-1.4Z" transform="translate(-2.3 1.4)"/><path class="cls-265" d="M326.92-1.4l-14.8,95.81v50c-27,20.64-84,20.64-111,0V93.93L235.67-1.4Z" transform="translate(-2.3 1.4)"/><path class="cls-266" d="M235.67-1.4,201.15,94.41v50c-23.92,18.32-75,18.32-98.89,0V93.93L149.36-1.4Z" transform="translate(-2.3 1.4)"/><path class="cls-267" d="M149.36-1.4,102.51,94.41v50c-24.26,18.57-73.78,18.57-98,0a147.63,147.63,0,0,1,0-50.5L58.12-1.4Z" transform="translate(-2.3 1.4)"/></g><path class="cls-268" d="M841.71,93.93c0,.85-186.75,4.95-418.62,4.92-231.5,0-418.63-4.07-418.61-4.92s186.78.28,418.25.26C654.57,94.22,841.7,93,841.71,93.93Z" transform="translate(-2.3 1.4)"/></g></g></g></svg>