<svg xmlns="http://www.w3.org/2000/svg" xmlns:xlink="http://www.w3.org/1999/xlink" viewBox="0 0 1026.51 749.5"><defs><style>.cls-1{isolation:isolate;}.cls-17,.cls-22,.cls-23{mix-blend-mode:multiply;}.cls-14,.cls-17{fill:#f8bb21;}.cls-15{fill:#cc9c3b;opacity:0.49;}.cls-16,.cls-18{mix-blend-mode:soft-light;}.cls-16{fill:url(#linear-gradient);}.cls-17,.cls-18,.cls-20{opacity:0.44;}.cls-19{fill:url(#linear-gradient-2);}.cls-20{mix-blend-mode:overlay;fill:url(#radial-gradient);}.cls-22{opacity:0.79;fill:url(#linear-gradient-3);}.cls-23{fill:url(#linear-gradient-4);}.cls-24{opacity:0.56;}.cls-25{fill:#775c10;}.cls-26{fill:url(#linear-gradient-5);}.cls-27{fill:url(#linear-gradient-6);}.cls-28{fill:url(#linear-gradient-7);}.cls-29{fill:url(#linear-gradient-8);}.cls-30{fill:url(#linear-gradient-9);}.cls-31{fill:url(#linear-gradient-10);}.cls-32{fill:url(#linear-gradient-11);}.cls-33{fill:#8c1919;}.cls-34{fill:#ff2a00;}.cls-35{filter:url(#luminosity-noclip);}</style><linearGradient id="linear-gradient" x1="513.25" x2="513.25" y2="749.5" gradientUnits="userSpaceOnUse"><stop offset="0" stop-color="#fff"/><stop offset="0.1" stop-color="#fafafa"/><stop offset="0.22" stop-color="#eaeaea"/><stop offset="0.36" stop-color="#d1d1d1"/><stop offset="0.51" stop-color="#aeaeae"/><stop offset="0.66" stop-color="#818181"/><stop offset="0.82" stop-color="#494949"/><stop offset="0.98" stop-color="#090909"/><stop offset="1"/></linearGradient><linearGradient id="linear-gradient-2" x1="513.25" y1="726.18" x2="513.25" y2="23.32" xlink:href="#linear-gradient"/><radialGradient id="radial-gradient" cx="511.3" cy="-590.58" r="518.13" gradientTransform="translate(0 940.08) scale(1 1.25)" gradientUnits="userSpaceOnUse"><stop offset="0" stop-color="#5e5e5e"/><stop offset="0.23" stop-color="#595959"/><stop offset="0.51" stop-color="#4b494a"/><stop offset="0.82" stop-color="#333031"/><stop offset="1" stop-color="#231f20"/></radialGradient><filter id="luminosity-noclip" x="34.21" y="-5234.49" width="958.09" height="32766" filterUnits="userSpaceOnUse" color-interpolation-filters="sRGB"><feFlood flood-color="#fff" result="bg"/><feBlend in="SourceGraphic" in2="bg"/></filter><mask id="mask" x="34.21" y="-5234.49" width="958.09" height="32766" maskUnits="userSpaceOnUse"><g class="cls-35"/></mask><linearGradient id="linear-gradient-3" x1="513.25" y1="89.66" x2="513.25" y2="32.44" gradientUnits="userSpaceOnUse"><stop offset="0" stop-color="#fff"/><stop offset="0.16" stop-color="#fdfdfc"/><stop offset="0.3" stop-color="#f8f7f1"/><stop offset="0.43" stop-color="#efeedf"/><stop offset="0.55" stop-color="#e3e0c6"/><stop offset="0.67" stop-color="#d3cfa6"/><stop offset="0.79" stop-color="#bfb97f"/><stop offset="0.91" stop-color="#a8a051"/><stop offset="1" stop-color="#928825"/></linearGradient><linearGradient id="linear-gradient-4" x1="513.25" y1="739.59" x2="513.25" y2="752.08" xlink:href="#linear-gradient"/><linearGradient id="linear-gradient-5" x1="507.01" y1="23.5" x2="519.5" y2="726" gradientUnits="userSpaceOnUse"><stop offset="0" stop-color="#8a6a14"/><stop offset="0.93" stop-color="#856812"/><stop offset="1" stop-color="#846812"/></linearGradient><linearGradient id="linear-gradient-6" x1="507.04" y1="25.45" x2="519.46" y2="724.06" gradientUnits="userSpaceOnUse"><stop offset="0" stop-color="#9e7818"/><stop offset="0.61" stop-color="#997616"/><stop offset="1" stop-color="#927314"/></linearGradient><linearGradient id="linear-gradient-7" x1="507.08" y1="27.4" x2="519.43" y2="722.11" gradientUnits="userSpaceOnUse"><stop offset="0" stop-color="#b1861c"/><stop offset="0.48" stop-color="#ac841a"/><stop offset="1" stop-color="#9f7f16"/></linearGradient><linearGradient id="linear-gradient-8" x1="507.11" y1="29.34" x2="519.4" y2="720.16" gradientUnits="userSpaceOnUse"><stop offset="0" stop-color="#c59521"/><stop offset="0.4" stop-color="#c0931f"/><stop offset="0.89" stop-color="#b18c19"/><stop offset="1" stop-color="#ac8a17"/></linearGradient><linearGradient id="linear-gradient-9" x1="507.15" y1="31.29" x2="519.36" y2="718.21" gradientUnits="userSpaceOnUse"><stop offset="0" stop-color="#d8a325"/><stop offset="0.35" stop-color="#d3a123"/><stop offset="0.78" stop-color="#c49a1d"/><stop offset="1" stop-color="#b99619"/></linearGradient><linearGradient id="linear-gradient-10" x1="507.18" y1="33.24" x2="519.33" y2="716.26" gradientUnits="userSpaceOnUse"><stop offset="0" stop-color="#ecb129"/><stop offset="0.31" stop-color="#e7af27"/><stop offset="0.7" stop-color="#d8a821"/><stop offset="1" stop-color="#c7a11b"/></linearGradient><linearGradient id="linear-gradient-11" x1="507.22" y1="35.19" x2="519.29" y2="714.31" gradientUnits="userSpaceOnUse"><stop offset="0" stop-color="#ffbf2d"/><stop offset="0.29" stop-color="#fabd2b"/><stop offset="0.64" stop-color="#eab625"/><stop offset="1" stop-color="#d4ad1d"/></linearGradient></defs><g class="cls-1"><g id="Layer_2" data-name="Layer 2"><g id="Template"><rect class="cls-14" width="1026.51" height="749.5" rx="13.98"/><rect class="cls-15" width="1026.51" height="749.5" rx="13.98"/><rect class="cls-16" width="1026.51" height="749.5" rx="13.98"/><rect class="cls-17" x="18.98" y="24.32" width="988.56" height="700.87" rx="9.52"/><g class="cls-18"><path class="cls-19" d="M969.05,24.32c21.25,0,38.48,21.47,38.48,48V677.22c0,26.49-17.23,48-38.48,48H57.46c-21.25,0-38.48-21.48-38.48-48V72.29c0-26.5,17.23-48,38.48-48H969.05m0-1H57.46c-21.66,0-39.29,22-39.29,49V677.22c0,27,17.63,49,39.29,49H969.05c21.66,0,39.29-22,39.29-49V72.29c0-27-17.63-49-39.29-49Z"/></g><rect class="cls-20" x="34.21" y="43.43" width="958.09" height="662.64" rx="9.52"/><g class="cls-21"><path class="cls-22" d="M941.52,74s-852-5.33-866.42,1.33S53.61,91,45.17,97.77c-2.89,2.31-10.83,1.83-10.83,1.83s-.13-2.37-.13-8.2h0c0-26.49,17.23-48,38.49-48H953.81c21.26,0,38.49,21.48,38.49,48h0v9.18a17.36,17.36,0,0,1-10.12-2.25C971.87,92.61,953.35,74,941.52,74Z"/></g><rect class="cls-23" width="1026.51" height="749.5" rx="13.98"/><g class="cls-24"><rect class="cls-25" x="23.9" y="29.98" width="978.7" height="689.54" rx="8.91"/><rect class="cls-26" x="25.38" y="31.9" width="975.76" height="685.7" rx="8.99"/><rect class="cls-27" x="26.85" y="33.82" width="972.81" height="681.86" rx="9.08"/><rect class="cls-28" x="28.32" y="35.75" width="969.87" height="678.01" rx="9.17"/><rect class="cls-29" x="29.79" y="37.67" width="966.92" height="674.17" rx="9.26"/><rect class="cls-30" x="31.27" y="39.59" width="963.98" height="670.32" rx="9.34"/><rect class="cls-31" x="32.74" y="41.51" width="961.03" height="666.48" rx="9.43"/><rect class="cls-32" x="34.21" y="43.43" width="958.09" height="662.64" rx="9.52"/></g><path class="cls-33" d="M93,0H56.53C25.31,0,0,31.54,0,70.45V103.6c0,5.52,3.59,10,8,10h8c4.42,0,8-4.47,8-10V74.35c0-24.71,16.08-44.74,35.9-44.74H93c4.43,0,8-4.47,8-10V10C101,4.47,97.44,0,93,0Z"/><path class="cls-33" d="M970,0H933.5c-4.43,0-8,4.47-8,10v9.63c0,5.52,3.59,10,8,10h33.06c19.82,0,35.9,20,35.9,44.74V103.6c0,5.52,3.59,10,8,10h8c4.43,0,8-4.47,8-10V70.45C1026.51,31.54,1001.2,0,970,0Z"/><path class="cls-33" d="M1018.49,635.91h-8c-4.42,0-8,4.48-8,10v29.25c0,24.71-16.08,44.74-35.9,44.74H933.5c-4.43,0-8,4.48-8,10v9.63c0,5.52,3.59,10,8,10H970c31.22,0,56.53-31.54,56.53-70.45V645.9C1026.51,640.39,1022.92,635.91,1018.49,635.91Z"/><path class="cls-33" d="M93,719.89H60c-19.82,0-35.9-20-35.9-44.74V645.9c0-5.51-3.59-10-8-10H8c-4.43,0-8,4.48-8,10v33.15C0,718,25.31,749.5,56.53,749.5H93c4.43,0,8-4.47,8-10v-9.63C101,724.37,97.44,719.89,93,719.89Z"/><path class="cls-34" d="M1016.55,108.26c2.27,0,4.11-2.29,4.11-5.12s-1.84-5.12-4.11-5.12-4.11,2.29-4.11,5.12S1014.28,108.26,1016.55,108.26Z"/><path class="cls-34" d="M933.7,16.66c2.27,0,4.11-2.3,4.11-5.13S936,6.41,933.7,6.41s-4.11,2.3-4.11,5.12S931.43,16.66,933.7,16.66Z"/><path class="cls-34" d="M90.61,6.41c-2.27,0-4.11,2.3-4.11,5.12s1.84,5.13,4.11,5.13,4.1-2.3,4.1-5.13S92.87,6.41,90.61,6.41Z"/><path class="cls-34" d="M10.62,99.6c-2.27,0-4.11,2.29-4.11,5.12s1.84,5.12,4.11,5.12,4.11-2.29,4.11-5.12S12.89,99.6,10.62,99.6Z"/><path class="cls-34" d="M1016.55,646.2c-2.27,0-4.11,2.29-4.11,5.12s1.84,5.12,4.11,5.12,4.11-2.29,4.11-5.12S1018.82,646.2,1016.55,646.2Z"/><path class="cls-34" d="M934.57,730.89c-2.27,0-4.11,2.29-4.11,5.12s1.84,5.12,4.11,5.12,4.11-2.29,4.11-5.12S936.84,730.89,934.57,730.89Z"/><path class="cls-34" d="M10.62,647.78c-2.27,0-4.11,2.29-4.11,5.12S8.35,658,10.62,658s4.11-2.29,4.11-5.12S12.89,647.78,10.62,647.78Z"/><ellipse class="cls-34" cx="90.27" cy="738.84" rx="4.11" ry="5.12"/></g></g></g></svg>